{
  "accessors": [
    {
      "bufferView": 2,
      "componentType": 5126,
      "count": 2038,
      "max": [
        7.534599781036377,
        7.5345001220703125,
        44.797401428222656
      ],
      "min": [
        -7.534599781036377,
        -7.534599781036377,
        -0.7809000015258789
      ],
      "type": "VEC3"
    },
    {
      "bufferView": 2,
      "byteOffset": 24456,
      "componentType": 5126,
      "count": 2038,
      "max": [
        0.9999775886535645,
        0.9999775886535645,
        1.0
      ],
      "min": [
        -0.9999775886535645,
        -0.9999775886535645,
        -0.9999994039535522
      ],
      "type": "VEC3"
    },
    {
      "bufferView": 3,
      "componentType": 5126,
      "count": 2038,
      "max": [
        0.9146329164505005,
        0.852881133556366,
        0.9999601244926453,
        1.0
      ],
      "min": [
        -1.0,
        -1.0,
        -0.9999603033065796,
        1.0
      ],
      "type": "VEC4"
    },
    {
      "bufferView": 1,
      "componentType": 5126,
      "count": 2038,
      "max": [
        0.9616000056266785,
        0.9900000095367432
      ],
      "min": [
        0.009999999776482582,
        0.009999999776482582
      ],
      "type": "VEC2"
    },
    {
      "bufferView": 0,
      "componentType": 5125,
      "count": 9792,
      "type": "SCALAR"
    },
    {
      "bufferView": 2,
      "byteOffset": 48912,
      "componentType": 5126,
      "count": 462,
      "max": [
        2.418600082397461,
        2.418600082397461,
        46.67179870605469
      ],
      "min": [
        -2.418600082397461,
        -2.418600082397461,
        41.85240173339844
      ],
      "type": "VEC3"
    },
    {
      "bufferView": 2,
      "byteOffset": 54456,
      "componentType": 5126,
      "count": 462,
      "max": [
        0.9993410110473633,
        0.9993410110473633,
        1.0
      ],
      "min": [
        -0.9993410110473633,
        -0.9993410110473633,
        -1.0
      ],
      "type": "VEC3"
    },
    {
      "bufferView": 3,
      "byteOffset": 32608,
      "componentType": 5126,
      "count": 462,
      "max": [
        0.7077973484992981,
        0.7077583074569702,
        0.7831515073776245,
        1.0
      ],
      "min": [
        -0.7101792693138123,
        -0.9979062080383301,
        -0.9993409514427185,
        1.0
      ],
      "type": "VEC4"
    },
    {
      "bufferView": 1,
      "byteOffset": 16304,
      "componentType": 5126,
      "count": 462,
      "max": [
        0.9674000144004822,
        0.9933000206947327
      ],
      "min": [
        0.09920000284910202,
        0.004399999976158142
      ],
      "type": "VEC2"
    },
    {
      "bufferView": 0,
      "byteOffset": 39168,
      "componentType": 5125,
      "count": 2160,
      "type": "SCALAR"
    }
  ],
  "asset": {
    "extras": {
      "author": "shedmon (https://sketchfab.com/shedmon)",
      "license": "CC-BY-4.0 (http://creativecommons.org/licenses/by/4.0/)",
      "source": "https://sketchfab.com/3d-models/bottle-d2c6dbdfac514b01aac842d3f89a08e9",
      "title": "Bottle"
    },
    "generator": "Sketchfab-13.17.0",
    "version": "2.0"
  },
  "bufferViews": [
    {
      "buffer": 0,
      "byteLength": 47808,
      "name": "floatBufferViews",
      "target": 34963
    },
    {
      "buffer": 0,
      "byteLength": 20000,
      "byteOffset": 47808,
      "byteStride": 8,
      "name": "floatBufferViews",
      "target": 34962
    },
    {
      "buffer": 0,
      "byteLength": 60000,
      "byteOffset": 67808,
      "byteStride": 12,
      "name": "floatBufferViews",
      "target": 34962
    },
    {
      "buffer": 0,
      "byteLength": 40000,
      "byteOffset": 127808,
      "byteStride": 16,
      "name": "floatBufferViews",
      "target": 34962
    }
  ],
  "buffers": [
    {
      "byteLength": 167808,
      "uri": "scene.bin"
    }
  ],
  "extensionsUsed": [
    "KHR_materials_transmission"
  ],
  "images": [
    {
      "uri": "textures/Botle_baseColor.png"
    },
    {
      "uri": "textures/Botle_normal.png"
    },
    {
      "uri": "textures/Botle_transmission.png"
    },
    {
      "uri": "textures/Probka_baseColor.png"
    },
    {
      "uri": "textures/Probka_normal.png"
    }
  ],
  "materials": [
    {
      "alphaMode": "BLEND",
      "doubleSided": true,
      "extensions": {
        "KHR_materials_transmission": {
          "transmissionFactor": 1.0,
          "transmissionTexture": {
            "index": 2
          }
        }
      },
      "name": "Botle",
      "normalTexture": {
        "index": 1
      },
      "pbrMetallicRoughness": {
        "baseColorTexture": {
          "index": 0
        },
        "metallicFactor": 0.6907393293,
        "roughnessFactor": 0.0
      }
    },
    {
      "doubleSided": true,
      "name": "Probka",
      "normalTexture": {
        "index": 4
      },
      "pbrMetallicRoughness": {
        "baseColorTexture": {
          "index": 3
        },
        "metallicFactor": 0.001714939,
        "roughnessFactor": 0.4434070122
      }
    }
  ],
  "meshes": [
    {
      "name": "Object_0",
      "primitives": [
        {
          "attributes": {
            "NORMAL": 1,
            "POSITION": 0,
            "TANGENT": 2,
            "TEXCOORD_0": 3
          },
          "indices": 4,
          "material": 0,
          "mode": 4
        }
      ]
    },
    {
      "name": "Object_1",
      "primitives": [
        {
          "attributes": {
            "NORMAL": 6,
            "POSITION": 5,
            "TANGENT": 7,
            "TEXCOORD_0": 8
          },
          "indices": 9,
          "material": 1,
          "mode": 4
        }
      ]
    }
  ],
  "nodes": [
    {
      "children": [
        1
      ],
      "matrix": [
        0.0056554777547717094,
        0.0,
        0.0,
        0.0,
        0.0,
        1.2557683237205873e-18,
        -0.0056554777547717094,
        0.0,
        0.0,
        0.0056554777547717094,
        1.2557683237205873e-18,
        0.0,
        0.0,
        0.0,
        0.0,
        1.0
      ],
      "name": "Sketchfab_model"
    },
    {
      "children": [
        2,
        3
      ],
      "name": "Botle.obj.cleaner.materialmerger.gles"
    },
    {
      "mesh": 0,
      "name": "Object_2"
    },
    {
      "mesh": 1,
      "name": "Object_3"
    }
  ],
  "samplers": [
    {
      "magFilter": 9729,
      "minFilter": 9987,
      "wrapS": 10497,
      "wrapT": 10497
    }
  ],
  "scene": 0,
  "scenes": [
    {
      "name": "Sketchfab_Scene",
      "nodes": [
        0
      ]
    }
  ],
  "textures": [
    {
      "sampler": 0,
      "source": 0
    },
    {
      "sampler": 0,
      "source": 1
    },
    {
      "sampler": 0,
      "source": 2
    },
    {
      "sampler": 0,
      "source": 3
    },
    {
      "sampler": 0,
      "source": 4
    }
  ]
}
